<svg width="113.33" height="67.676" viewBox="0 0 113.33 67.676" xmlns="http://www.w3.org/2000/svg"><g id="svgGroup" stroke-linecap="round" fill-rule="evenodd" font-size="9pt" stroke="#ffffff" stroke-width="0.2mm" fill="#ffffff" style="stroke:#ffffff;stroke-width:0.2mm;fill:#ffffff"><path d="M 7.178 67.676 L 0 67.676 L 0 0 L 9.766 0 L 22.949 36.67 A 462.136 462.136 0 0 1 25.415 43.774 Q 26.611 47.314 27.832 50.879 L 28.223 50.879 A 214.457 214.457 0 0 0 30.615 43.774 Q 31.738 40.234 32.959 36.67 L 45.947 0 L 55.859 0 L 55.859 67.676 L 48.34 67.676 L 48.34 29.346 A 137.599 137.599 0 0 1 48.405 25.239 Q 48.489 22.43 48.682 19.189 A 764.123 764.123 0 0 1 48.981 14.391 Q 49.125 12.195 49.269 10.224 A 446.89 446.89 0 0 1 49.365 8.936 L 48.926 8.936 L 43.604 24.902 L 30.615 60.791 L 25.049 60.791 L 12.061 24.902 L 6.689 8.936 L 6.25 8.936 A 334.379 334.379 0 0 1 6.54 13.109 Q 6.675 15.239 6.801 17.594 A 561.048 561.048 0 0 1 6.885 19.189 Q 7.178 24.951 7.178 29.346 L 7.178 67.676 Z" id="0"/><path d="M 81.689 67.676 L 73.779 67.676 L 73.779 17.725 L 80.371 17.725 L 81.104 24.902 L 81.299 24.902 A 41.996 41.996 0 0 1 87.461 19.851 A 38.155 38.155 0 0 1 88.965 18.896 A 17.105 17.105 0 0 1 96.603 16.515 A 20.898 20.898 0 0 1 98.193 16.455 A 19.418 19.418 0 0 1 102.62 16.927 Q 107.136 17.984 109.668 21.411 Q 112.338 25.025 113.062 31.092 A 41.029 41.029 0 0 1 113.33 35.937 L 113.33 67.676 L 105.518 67.676 L 105.518 36.963 A 35.142 35.142 0 0 0 105.341 33.305 Q 104.951 29.591 103.698 27.326 A 8.45 8.45 0 0 0 103.223 26.563 A 7.286 7.286 0 0 0 99.096 23.718 Q 97.826 23.358 96.284 23.301 A 15.916 15.916 0 0 0 95.703 23.291 A 12.451 12.451 0 0 0 88.721 25.342 Q 85.596 27.393 81.689 31.299 L 81.689 67.676 Z" id="1"/></g></svg>